<svg xmlns="http://www.w3.org/2000/svg" width="17.095" height="17.095" viewBox="0 0 17.095 17.095"><g transform="translate(19.095 19.095) rotate(180)"><path d="M10.547,2a8.547,8.547,0,1,0,8.547,8.547A8.547,8.547,0,0,0,10.547,2Zm0,15.385a6.838,6.838,0,1,1,6.838-6.838A6.838,6.838,0,0,1,10.547,17.385Z"/><path d="M11.855,10a.855.855,0,0,0-.855.855v4.274a.855.855,0,1,0,1.709,0V10.855A.855.855,0,0,0,11.855,10Z" transform="translate(-1.307 -1.162)"/><path d="M11.248,7.247A.9.9,0,0,0,11,7.854a.855.855,0,0,0,.248.607.983.983,0,0,0,.282.179.8.8,0,0,0,.65,0,.983.983,0,0,0,.282-.179,1,1,0,0,0,.179-.282.718.718,0,0,0,.068-.325.855.855,0,0,0-1.462-.607Z" transform="translate(-1.307 -0.725)"/></g></svg>