<svg xmlns="http://www.w3.org/2000/svg" xmlns:xlink="http://www.w3.org/1999/xlink" width="114.3" height="108.901" viewBox="0 0 114.3 108.901"><defs><style>.a,.f{fill:none;}.a{stroke:#707070;stroke-width:5.4px;}.a,.d{stroke-miterlimit:10;}.b{fill:url(#a);}.c{fill:#58a5ff;}.d{stroke:#fff;stroke-width:0.9px;fill:url(#b);}.e{stroke:none;}</style><linearGradient id="a" x1="0.904" y1="0.856" x2="0.167" gradientUnits="objectBoundingBox"><stop offset="0.001" stop-color="#5bc7e0"/><stop offset="1" stop-color="#59a5ff"/></linearGradient><radialGradient id="b" cx="0.5" cy="0.5" r="0.672" gradientUnits="objectBoundingBox"><stop offset="0" stop-color="#91d1ff"/><stop offset="1" stop-color="#58a5ff"/></radialGradient></defs><g class="a" transform="translate(0 1.801)"><circle class="e" cx="53.55" cy="53.55" r="53.55"/><circle class="f" cx="53.55" cy="53.55" r="50.85"/></g><path class="b" d="M57.112,63a5.888,5.888,0,0,1-5.888-5.888A45.388,45.388,0,0,0,5.888,11.776,5.888,5.888,0,0,1,5.888,0,57.177,57.177,0,0,1,63,57.112,5.888,5.888,0,0,1,57.112,63" transform="translate(47.699)"/><circle class="c" cx="10.35" cy="10.35" r="10.35" transform="translate(93.6 54.001)"/><g class="d" transform="translate(99 59.401)"><circle class="e" cx="4.95" cy="4.95" r="4.95"/><circle class="f" cx="4.95" cy="4.95" r="4.5"/></g></svg>