<svg xmlns="http://www.w3.org/2000/svg" width="166" height="41" viewBox="0 0 166 41"><defs><style>.a{opacity:0.268;}.b{fill:#58a5ff;}.c{fill:#fff;font-size:15px;font-family:Gotham-Bold, Gotham;font-weight:700;}.d,.e,.f{fill:none;stroke:#fff;stroke-miterlimit:10;stroke-width:2px;}.d,.f{stroke-linecap:round;}.f{stroke-linejoin:round;}</style></defs><g transform="translate(-9 -113)"><rect class="a" width="166" height="41" rx="5" transform="translate(9 113)"/><circle class="b" cx="4.5" cy="4.5" r="4.5" transform="translate(143 130)"/><text class="c" transform="translate(92 139)"><tspan x="-36.015" y="0">Overview</tspan></text><g transform="translate(19 120)"><g transform="translate(3.375 1.35)"><path class="d" d="M16.079,0a2.986,2.986,0,0,1,1.985.7A2.336,2.336,0,0,1,18.9,2.445V17.8a2.343,2.343,0,0,1-.838,1.74,2.993,2.993,0,0,1-1.983.705H2.821a2.993,2.993,0,0,1-1.983-.705A2.343,2.343,0,0,1,0,17.8V2.445A2.336,2.336,0,0,1,.836.7,2.986,2.986,0,0,1,2.821,0" transform="translate(0 3.375)"/><path class="e" d="M5.658,1.267H7.444a.645.645,0,0,1,.656.627v.847a.637.637,0,0,1-.195.451.653.653,0,0,1-.461.183H.649A.645.645,0,0,1,0,2.741V1.908a.63.63,0,0,1,.188-.455.646.646,0,0,1,.461-.186H2.435A.653.653,0,0,0,2.9,1.085.637.637,0,0,0,3.091.634h0A.637.637,0,0,1,3.286.183.653.653,0,0,1,3.747,0h.607A.645.645,0,0,1,5,.634H5a.637.637,0,0,0,.195.451A.653.653,0,0,0,5.658,1.267Z" transform="translate(5.4 0)"/><circle class="e" cx="5.4" cy="5.4" r="5.4" transform="translate(4.725 8.1)"/><path class="e" d="M.44,1.129A.459.459,0,0,1,.464.463l.1-.092A.459.459,0,0,1,1.2.393L6.51,5.787a.459.459,0,0,1-.023.666l-.1.092a.459.459,0,0,1-.631-.022Z" transform="translate(14.075 17.467)"/><path class="f" d="M1.824,0,.573,2.7" transform="translate(7.239 12.15)"/><path class="f" d="M1.824,0,.573,2.7" transform="translate(10.614 12.15)"/></g></g></g></svg>