<svg xmlns="http://www.w3.org/2000/svg" width="35" height="35" viewBox="0 0 35 35"><defs><style>.a{opacity:0.524;}.b,.c,.d{fill:none;stroke:#000;stroke-miterlimit:10;stroke-width:2px;}.b,.d{stroke-linecap:round;}.d{stroke-linejoin:round;}</style></defs><g class="a"><g transform="translate(5.95 1.347)"><path class="b" d="M9.931.309A11.778,11.778,0,0,0,7,0C2.118,0,0,2.514,0,3.266V7.23A2.555,2.555,0,0,0,2.546,9.488h.875" transform="translate(0 16.482)"/><path class="c" d="M.044,3.08C.044,4.331,0,6.125,0,6.956s.166,3.885,3.421,3.885A3.71,3.71,0,0,0,7.254,7.175c0-.787-.079-2.966-.079-3.675A3.876,3.876,0,0,0,3.29,0,3.3,3.3,0,0,0,.044,3.08Z" transform="translate(3.631 4.603)"/><path class="c" d="M.066,0S-.809,4.471,3.82,4.471" transform="translate(6.855 4.629)"/><path class="c" d="M0,.875A5.25,5.25,0,0,0,3.675,0" transform="translate(3.832 7.971)"/><path class="b" d="M0,.761A10.973,10.973,0,0,1,4.069,0c4.883,0,7.219,2.625,7.219,3.211V7.053" transform="translate(11.856 11.891)"/><path class="c" d="M.044,3.08C.044,4.331,0,6.125,0,6.965S.166,10.85,3.421,10.85A3.71,3.71,0,0,0,7.263,7.175c0-.8-.079-2.966-.079-3.675A3.868,3.868,0,0,0,3.3,0,3.325,3.325,0,0,0,.044,3.08Z" transform="translate(12.556)"/><path class="c" d="M0,1.041S5.469,1.207,7,0" transform="translate(12.766 3.211)"/><circle class="b" cx="7.096" cy="7.096" r="7.096" transform="translate(6.536 18.244)"/><path class="d" d="M6.519,6.4,4.1,5.626l-2,1.549L2.091,4.646,0,3.229l2.406-.8L3.106,0,4.6,2.039,7.131,1.96,5.661,4.016,6.519,6.4Z" transform="translate(9.835 21.473)"/></g></g></svg>