<svg xmlns="http://www.w3.org/2000/svg" width="49.491" height="47.667" viewBox="0 0 49.491 47.667"><defs><style>.a{fill:#f04037;}.b{fill:#ba1519;}.c{fill:#fff;}</style></defs><g transform="translate(-18.509 -20.67)"><path class="a" d="M1303,118.907l25.554,7.151a5.06,5.06,0,0,0,3.646-.346l16.392-8.2a.409.409,0,0,0,0-.77l-24.077-7.968-21.531,9.335a.424.424,0,0,0,.015.8Z" transform="translate(-1282.256 -86.418)"/><path class="a" d="M1329.723,124.151l-.094,14.364L1301.56,129.4V116.828a.849.849,0,0,1,1.069-.817Z" transform="translate(-1282.91 -82.296)"/><path class="a" d="M1320.94,138.776l18.576-10.2.314-12.274a.833.833,0,0,0-1.226-.786l-17.6,8.958Z" transform="translate(-1271.832 -82.619)"/><path class="b" d="M1321.014,133.99l-.2,12.086s4.715-2.845,5.233-3.285a11.517,11.517,0,0,0,1.681-3.583c.707-1.98,3.033-5.343,4.715-3.662s.377,2.279,3.143.723,4.18-3.143,4.086-6.805,0-5.673,0-5.673Z" transform="translate(-1271.906 -77.833)"/><path class="b" d="M1329.68,133.618l-28.022-9.068-.189,7.858a6.459,6.459,0,0,0,5.469,5.831c5.328,1.022,5.375-2.656,8.3-2.09s3.677,3.913,5.155,5,3.473,3.9,9.1,4.589C1329.492,145.452,1329.68,133.618,1329.68,133.618Z" transform="translate(-1282.961 -77.399)"/><path class="b" d="M1306,112.1v2.986c0,.959,2.468,1.729,5.5,1.729s5.5-.77,5.5-1.729V112.1a10.765,10.765,0,0,1-5.139,1.053A16.487,16.487,0,0,1,1306,112.1Z" transform="translate(-1280.372 -84.515)"/><ellipse class="b" cx="5.501" cy="2.169" rx="5.501" ry="2.169" transform="translate(25.565 25.275)"/><path class="b" d="M1315.56,114.79v3.033c0,.959,2.467,1.729,5.5,1.729s5.5-.77,5.5-1.729V114.79a9.964,9.964,0,0,1-5.139,1.163,15.149,15.149,0,0,1-5.862-1.163Z" transform="translate(-1274.907 -82.977)"/><ellipse class="b" cx="5.501" cy="2.169" rx="5.501" ry="2.169" transform="translate(40.653 29.612)"/><path class="b" d="M1322.56,111.43v3.143c0,.943,2.467,1.713,5.5,1.713s5.516-.77,5.516-1.713V111.43a9.7,9.7,0,0,1-5.155,1.21,14.662,14.662,0,0,1-5.862-1.21Z" transform="translate(-1270.906 -84.898)"/><ellipse class="b" cx="5.501" cy="2.169" rx="5.501" ry="2.169" transform="translate(51.654 24.363)"/><path class="b" d="M1313.26,109.187v2.876c0,.943,2.467,1.713,5.5,1.713s5.516-.77,5.516-1.713V109.14a10.8,10.8,0,0,1-5.155,1.053,16.487,16.487,0,0,1-5.862-1.006Z" transform="translate(-1276.222 -86.207)"/><ellipse class="b" cx="5.501" cy="2.169" rx="5.501" ry="2.169" transform="translate(37.054 20.67)"/><ellipse class="c" cx="1.713" cy="1.713" rx="1.713" ry="1.713" transform="translate(63.095 36.276)"/><ellipse class="c" cx="1.713" cy="1.713" rx="1.713" ry="1.713" transform="translate(50.35 60.384)"/><ellipse class="c" cx="1.713" cy="1.713" rx="1.713" ry="1.713" transform="translate(40.7 43.867)"/><ellipse class="c" cx="1.713" cy="1.713" rx="1.713" ry="1.713" transform="translate(21.904 54.444)"/></g></svg>