<svg xmlns="http://www.w3.org/2000/svg" width="28.333" height="26.769" viewBox="0 0 28.333 26.769"><defs><style>.a,.b,.c,.d,.e{fill:none;stroke:#fff;}.a,.e{stroke-linecap:round;}.a,.c,.d,.e{stroke-miterlimit:10;}.a,.c{stroke-width:2px;}.d,.e{stroke-width:2.235px;}</style></defs><g transform="translate(1.008 1.119)"><path class="a" d="M23.925,23.925H1.366A1.63,1.63,0,0,1,.007,22.162V1.755A1.63,1.63,0,0,1,1.366,0h8.06" transform="translate(0 0.725)"/><rect class="b" width="7.975" height="2.175" rx="0.47" transform="translate(2.9 8.7)"/><rect class="b" width="7.975" height="2.175" rx="0.47" transform="translate(2.9 5.8)"/><rect class="c" width="7.25" height="7.25" rx="1" transform="translate(2.9 13.05)"/><path class="d" d="M10.735,12.539a7.271,7.271,0,0,0,2.717-8.076C12.527,1.444,9.793-.067,6.737,0s-5.7,1.7-6.5,4.759a7.252,7.252,0,0,0,3.055,7.946v2.8a1.185,1.185,0,0,0,.334.828,1.1,1.1,0,0,0,.8.336l5.263-.056a1.148,1.148,0,0,0,1.042-1.164Z" transform="translate(12.325 0)"/><circle class="d" cx="2.9" cy="2.9" r="2.9" transform="translate(15.95 4.35)"/><path class="d" d="M1,0V7.975" transform="translate(17.85 9.425)"/><path class="e" d="M0,1.5H5.8" transform="translate(16.675 17.712)"/><path class="e" d="M0,.5H5.8" transform="translate(16.675 21.612)"/></g></svg>