<svg xmlns="http://www.w3.org/2000/svg" xmlns:xlink="http://www.w3.org/1999/xlink" width="27" height="23" viewBox="0 0 27 23"><defs><style>.a,.c,.g{fill:none;}.a,.c{stroke:#dc4e63;stroke-width:2px;}.b{clip-path:url(#a);}.c{stroke-miterlimit:10;}.d{fill:#58a5ff;}.e{fill:#fff;font-size:8px;font-family:Gotham-Medium, Gotham;font-weight:500;}.f{stroke:none;}</style><clipPath id="a"><path class="a" d="M6.25,17.5H2.614A2.613,2.613,0,0,1,.883,12.927c.664-.656,1.349-1.334,1.349-4.534A6.528,6.528,0,0,1,7.719,1.957a1.25,1.25,0,1,1,2.062,0,6.528,6.528,0,0,1,5.487,6.436c0,3.2.686,3.879,1.349,4.534A2.613,2.613,0,0,1,14.886,17.5H11.25a2.5,2.5,0,1,1-5,0Z"/></clipPath></defs><g transform="translate(0 2)"><g transform="translate(1.25)"><path class="a" d="M6.25,17.5H2.614A2.613,2.613,0,0,1,.883,12.927c.664-.656,1.349-1.334,1.349-4.534A6.528,6.528,0,0,1,7.719,1.957a1.25,1.25,0,1,1,2.062,0,6.528,6.528,0,0,1,5.487,6.436c0,3.2.686,3.879,1.349,4.534A2.613,2.613,0,0,1,14.886,17.5H11.25a2.5,2.5,0,1,1-5,0Z"/><g class="b"><g transform="translate(-1.25)"><g class="c"><rect class="f" width="20" height="20"/><rect class="g" x="1" y="1" width="18" height="18"/></g></g></g></g></g><circle class="d" cx="7.5" cy="7.5" r="7.5" transform="translate(12)"/><text class="e" transform="translate(14 2)"><tspan x="1.02" y="8">10</tspan></text></svg>