<svg xmlns="http://www.w3.org/2000/svg" width="35" height="35" viewBox="0 0 35 35"><defs><style>.a,.b,.c{fill:none;stroke:#dd4e57;stroke-miterlimit:10;stroke-width:2px;}.a,.c{stroke-linecap:round;}.c{stroke-linejoin:round;}</style></defs><g transform="translate(5.95 1.732)"><path class="a" d="M13.571,2.251A9.433,9.433,0,0,0,7,.011c-4.882,0-7,2.5-7,3.255V7.23A2.555,2.555,0,0,0,2.546,9.487h.875" transform="translate(0 16.483)"/><path class="b" d="M.044,3.08C.044,4.331,0,6.125,0,6.965S.166,10.85,3.421,10.85A3.719,3.719,0,0,0,7.263,7.175c0-.8-.079-2.966-.079-3.675A3.876,3.876,0,0,0,3.3,0,3.272,3.272,0,0,0,.044,3.08Z" transform="translate(3.631 4.603)"/><path class="b" d="M.066,0S-.809,4.463,3.82,4.463" transform="translate(6.855 4.638)"/><path class="b" d="M0,.875A5.25,5.25,0,0,0,3.675,0" transform="translate(3.832 7.98)"/><path class="a" d="M0,.719A10.973,10.973,0,0,1,4.069,0c4.883,0,7.219,2.625,7.219,3.22V7.062c0,1.461-2.082,2.424-2.835,2.424" transform="translate(11.856 11.89)"/><path class="b" d="M.044,3.089C.044,4.34,0,6.134,0,6.965S.166,10.85,3.421,10.85A3.7,3.7,0,0,0,7.263,7.175c0-.787-.079-2.966-.079-3.675A3.868,3.868,0,0,0,3.3,0,3.319,3.319,0,0,0,.044,3.089Z" transform="translate(12.556)"/><path class="b" d="M0,1.032S5.469,1.207,7,0" transform="translate(12.766 3.22)"/><circle class="a" cx="6.239" cy="6.239" r="6.239" transform="translate(5.898 19.189)"/><path class="a" d="M0,1.9S1.1-1.036,3.57.39s.376,4.034.376,4.034" transform="translate(13.528 17.363)"/><path class="c" d="M2.984,0,0,1.523,2.739,3.281,2.984,0Z" transform="translate(11.235 22.111)"/><path class="c" d="M0,3.281,2.975,1.759.245,0,0,3.281Z" transform="translate(9.818 25.261)"/></g></svg>