<svg xmlns="http://www.w3.org/2000/svg" width="35" height="35.521" viewBox="0 0 35 35.521"><defs><style>.a{opacity:0.573;}.b,.c{fill:none;stroke:#000;stroke-miterlimit:10;stroke-width:2px;}.b{stroke-linecap:round;}</style></defs><g class="a"><g transform="translate(5.95 2.782)"><path class="b" d="M10.36.45A10.833,10.833,0,0,0,7,0C2.118,0,0,2.515,0,3.258V7.231A2.546,2.546,0,0,0,2.546,9.48H4.3" transform="translate(0 16.464)"/><path class="c" d="M.044,3.08C.044,4.34,0,6.134,0,6.965S.166,10.85,3.421,10.85A3.71,3.71,0,0,0,7.263,7.175c0-.8-.079-2.966-.079-3.675A3.876,3.876,0,0,0,3.3,0,3.272,3.272,0,0,0,.044,3.08Z" transform="translate(3.631 4.638)"/><path class="c" d="M.066,0S-.809,4.471,3.82,4.471" transform="translate(6.855 4.629)"/><path class="c" d="M0,.875A5.25,5.25,0,0,0,3.675,0" transform="translate(3.832 7.971)"/><path class="b" d="M0,.71A11.165,11.165,0,0,1,4.069,0c4.883,0,7.219,2.625,7.219,3.211V7.054c0,1.461-2.082,2.424-2.835,2.424" transform="translate(11.856 11.89)"/><path class="c" d="M.044,3.08C.044,4.331,0,6.125,0,6.965s.166,3.876,3.421,3.876A3.7,3.7,0,0,0,7.263,7.175c0-.8-.079-2.966-.079-3.675A3.859,3.859,0,0,0,3.3,0,3.325,3.325,0,0,0,.044,3.08Z" transform="translate(12.556)"/><path class="c" d="M0,1.041S5.469,1.207,7,0" transform="translate(12.766 3.176)"/><circle class="b" cx="5.364" cy="5.364" r="5.364" transform="translate(7.394 18.541)"/><path class="b" d="M0,0,3.894,4.218" transform="translate(17.666 27.108)"/></g></g></svg>