<svg xmlns="http://www.w3.org/2000/svg" width="24" height="24" viewBox="0 0 24 24"><defs><style>.a,.b,.c{fill:none;stroke:#020202;stroke-miterlimit:10;}.a,.c{stroke-linecap:round;}.c{stroke-linejoin:round;}</style></defs><g transform="translate(4.8 1.8)"><path class="a" d="M12.242,0A2.2,2.2,0,0,1,14.4,2.245V16.355A2.2,2.2,0,0,1,12.242,18.6H2.126A2.2,2.2,0,0,1,0,16.355V2.245A2.284,2.284,0,0,1,.63.655,2.111,2.111,0,0,1,2.158,0" transform="translate(0 1.8)"/><path class="b" d="M4.609,1.146H6.066A.548.548,0,0,1,6.6,1.7v.743A.548.548,0,0,1,6.066,3H.527A.542.542,0,0,1,0,2.444V1.7a.542.542,0,0,1,.527-.556H1.985A.522.522,0,0,0,2.361.969.58.58,0,0,0,2.505.563h0A.549.549,0,0,1,3.033,0h.495a.549.549,0,0,1,.534.563h0a.572.572,0,0,0,.152.419A.514.514,0,0,0,4.609,1.146Z" transform="translate(4.2)"/><path class="c" d="M0,1.237.462,1.8,1.8,0" transform="translate(2.4 6.6)"/><path class="c" d="M0,.25H6" transform="translate(6 7.925)"/><path class="c" d="M0,1.229.462,1.8,1.8,0" transform="translate(2.4 11.1)"/><path class="c" d="M0,.25H6" transform="translate(6 11.825)"/><path class="c" d="M0,1.229.462,1.8,1.8,0" transform="translate(2.4 15)"/><path class="c" d="M0,.25H6" transform="translate(6 15.725)"/></g></svg>