<svg xmlns="http://www.w3.org/2000/svg" width="25" height="25" viewBox="0 0 25 25"><defs><style>.a{fill:none;stroke:#fff;stroke-miterlimit:10;stroke-width:2px;}</style></defs><g transform="translate(2.194 2.137)"><path class="a" d="M19.913,7.863H18.2a8.9,8.9,0,0,0-.5-1.206l1.25-1.25a.712.712,0,0,0,0-1.006L16.425,1.806a.712.712,0,0,0-1.012,0l-1.25,1.25h0a7.837,7.837,0,0,0-1.25-.531V.713A.712.712,0,0,0,12.181,0H8.575a.719.719,0,0,0-.719.712V2.488a8.387,8.387,0,0,0-1.25.5l-1.25-1.25a.712.712,0,0,0-1.006,0L1.819,4.288a.712.712,0,0,0,0,1.006l1.2,1.213a8.125,8.125,0,0,0-.525,1.219H.713A.712.712,0,0,0,0,8.438v3.625a.7.7,0,0,0,.706.712H2.394a8.95,8.95,0,0,0,.625,1.494l-1.169,1.2a.719.719,0,0,0,0,1.012l2.606,2.5a.712.712,0,0,0,1.006,0l1.15-1.187a8.869,8.869,0,0,0,1.25.506L7.9,20.025a.713.713,0,0,0,.725.7l3.619-.069a.706.706,0,0,0,.7-.725l-.031-1.694a8.006,8.006,0,0,0,1.3-.562l1.25,1.2a.712.712,0,0,0,1.006,0l2.5-2.619a.712.712,0,0,0,0-1.006l-1.25-1.194a8.469,8.469,0,0,0,.456-1.125h1.688a.719.719,0,0,0,.744-.694V8.613a.7.7,0,0,0-.694-.75Z" transform="translate(0 0)"/><circle class="a" cx="4.381" cy="4.381" r="4.381" transform="translate(5.969 5.963)"/></g></svg>