<svg xmlns="http://www.w3.org/2000/svg" width="29" height="29" viewBox="0 0 29 29"><defs><style>.a{fill:#58a5ff;}.b,.c{fill:rgba(0,0,0,0);stroke:#fff;stroke-miterlimit:10;stroke-width:2px;}.c{stroke-linecap:round;stroke-linejoin:round;}.d{fill:#fff;}.e{fill:#020202;}</style></defs><g transform="translate(-1225 -307)"><circle class="a" cx="14.5" cy="14.5" r="14.5" transform="translate(1225 307)"/><g transform="translate(1231.97 313.895)"><path class="b" d="M.5,0V16.21" transform="translate(0.325)"/><path class="c" d="M.825,1.3,0,0" transform="translate(0 14.905)"/><path class="c" d="M0,1.25.9,0" transform="translate(0.825 14.96)"/><rect class="d" width="11.235" height="1.705" rx="0.853" transform="translate(3.035 14.51)"/><rect class="e" width="11.235" height="1.705" rx="0.853" transform="translate(3.035 10.92)"/><rect class="d" width="11.235" height="1.705" rx="0.853" transform="translate(3.035 10.92)"/><rect class="e" width="11.235" height="1.705" rx="0.853" transform="translate(3.035 7.335)"/><rect class="d" width="11.235" height="1.705" rx="0.853" transform="translate(3.035 7.335)"/><rect class="e" width="11.235" height="1.705" rx="0.853" transform="translate(3.035 3.745)"/><rect class="d" width="11.235" height="1.705" rx="0.853" transform="translate(3.035 3.745)"/><rect class="d" width="11.235" height="1.705" rx="0.853" transform="translate(3.035 0.16)"/></g></g></svg>